<?xml version="1.0" encoding="utf-8"?>
<svg viewBox="103.075 90.2138 324.77 286.4201" xmlns="http://www.w3.org/2000/svg">
  <path style="stroke-width: 2px; stroke: rgb(129, 202, 154); fill: rgb(182, 115, 64);" d="M 103.075 365.655 L 154.587 265.369 C 157.573 247.075 156.639 239.05 159.626 220.01 C 164.293 190.257 195.462 165.023 235.213 143.21 C 244.227 138.264 247.197 136.558 248.79 134.231 C 248.735 135.037 248.722 136.155 248.962 136.954 C 249.374 138.329 250.173 139.802 251.261 141.278 C 253.426 144.214 256.861 147.366 261.122 150.527 C 269.629 156.84 281.594 163.331 293.884 168.681 C 306.175 174.032 318.856 178.27 328.793 180.078 C 333.771 180.984 338.123 181.286 341.379 180.809 C 343.833 180.449 345.755 179.566 346.907 178.187 C 347.104 181.606 347.548 185.198 348.315 188.985 C 357.294 233.309 331.158 261.845 311.362 285.894 C 289.751 312.147 249.584 319.123 223.456 315.677 C 212.96 314.293 200.376 351.291 145.068 375.682 C 139.191 378.274 138.215 376.353 132.19 360.021 C 128.866 351.01 119.161 352.889 103.075 365.655 Z M 257.05 115.748 C 267.461 96.55 313.369 83.564 345.252 112.673 C 366.388 114.992 407.132 85.077 427.099 90.989 C 434.242 89.413 388.628 104.893 352.632 122.416 C 358.044 136.079 346.002 151.544 346.826 176.397 C 346.218 178.352 344.293 179.371 341.235 179.819 C 338.085 180.281 333.897 179.99 328.973 179.094 C 319.106 177.299 306.535 173.097 294.284 167.764 C 282.034 162.431 270.169 155.994 261.718 149.725 C 257.5 146.595 254.174 143.543 252.066 140.684 C 251.019 139.264 250.303 137.942 249.919 136.666 C 249.729 136.032 249.631 135.454 249.619 134.866 C 249.644 133.399 249.774 132.769 249.904 132.054 C 251.03 129.237 252.089 124.895 257.05 115.748 Z"/>
</svg>
